<mxfile host="app.diagrams.net" modified="2021-04-12T13:33:00.454Z" agent="5.0 (Windows)" etag="VhtfvAi-t7_cLqN_I7sN" version="14.5.10" type="github">
  <diagram id="X60pKRLHYqNhBMuP8MKD" name="Page-1">
    <mxGraphModel dx="1422" dy="763" grid="1" gridSize="10" guides="1" tooltips="1" connect="1" arrows="1" fold="1" page="1" pageScale="1" pageWidth="827" pageHeight="1169" math="0" shadow="0">
      <root>
        <mxCell id="0" />
        <mxCell id="1" parent="0" />
        <mxCell id="a3cAYwDz3qXqtBNzGSlk-1" value="&lt;div&gt;specification&lt;/div&gt;" style="rounded=0;whiteSpace=wrap;html=1;" vertex="1" parent="1">
          <mxGeometry x="160" y="120" width="120" height="80" as="geometry" />
        </mxCell>
      </root>
    </mxGraphModel>
  </diagram>
</mxfile>
